<svg width="24" height="24" viewBox="0 0 24 24" fill="none" xmlns="http://www.w3.org/2000/svg">
<g clip-path="url(#clip0_36_1578)">
<path d="M14.7267 13.0083C15.2083 13.1625 15.625 13.355 16.0125 13.5917L15.9867 13.5767C16.4275 13.7725 16.8083 14.0017 17.1558 14.2708L17.1433 14.2617C17.16 14.3125 17.17 14.37 17.17 14.4308C17.17 14.44 17.17 14.4483 17.1692 14.4575V14.4567C17.1567 14.8142 17.0775 15.15 16.9433 15.4558L16.95 15.4383C16.7575 15.8242 16.4367 16.1217 16.0442 16.28L16.0325 16.2842C15.65 16.4867 15.1983 16.6117 14.7192 16.6267H14.7142C13.7975 16.505 12.9692 16.2233 12.2242 15.8083L12.26 15.8267C11.4083 15.4367 10.6808 14.9242 10.0633 14.3025L10.0625 14.3017C9.37583 13.5875 8.74667 12.8058 8.18917 11.9733L8.15 11.9117C7.62 11.2208 7.2825 10.3567 7.23333 9.41583L7.2325 9.405V9.30167C7.25917 8.48917 7.6225 7.76583 8.18583 7.2625L8.18833 7.26C8.36083 7.08833 8.5975 6.98083 8.85917 6.97583H8.86C8.94417 6.97833 9.025 6.985 9.10333 6.99667L9.0925 6.995C9.165 7.00583 9.24917 7.0125 9.33583 7.01417H9.33833C9.35417 7.0125 9.37167 7.01167 9.39 7.01167C9.49833 7.01167 9.59917 7.04417 9.68333 7.09917L9.68167 7.09833C9.77083 7.19667 9.83917 7.31583 9.88 7.44667L9.88167 7.45333C9.95056 7.62556 10.0928 8.00444 10.3083 8.59C10.4208 8.85167 10.5308 9.17417 10.6192 9.50583L10.6308 9.55833C10.5675 9.85917 10.4075 10.115 10.1867 10.2992L10.1842 10.3008C9.88694 10.6153 9.73833 10.8153 9.73833 10.9008C9.74167 10.9742 9.76667 11.0408 9.80583 11.0958L9.805 11.095C10.1425 11.7858 10.585 12.3725 11.1183 12.8608L11.1225 12.865C11.685 13.3725 12.3275 13.8083 13.0242 14.1483L13.0733 14.17C13.1542 14.2225 13.2508 14.2558 13.3558 14.2608H13.3575C13.4869 14.2608 13.7197 14.0519 14.0558 13.6342C14.3919 13.2164 14.6153 13.0075 14.7258 13.0075L14.7267 13.0083ZM12.1042 19.855H12.1225C13.2533 19.855 14.3283 19.6175 15.3008 19.1892L15.25 19.2092C17.2133 18.3808 18.7442 16.85 19.5525 14.9392L19.5725 14.8867C19.9808 13.9592 20.2183 12.8775 20.2183 11.7408C20.2183 10.6042 19.9808 9.5225 19.5525 8.54333L19.5725 8.595C18.7442 6.63167 17.2133 5.10083 15.3025 4.2925L15.25 4.2725C14.3225 3.86417 13.2408 3.62667 12.1042 3.62667C10.9675 3.62667 9.88583 3.86417 8.90667 4.2925L8.95833 4.2725C6.995 5.10083 5.46417 6.63167 4.65583 8.5425L4.63583 8.595C4.2275 9.52583 3.99 10.6108 3.99 11.7508C3.99 13.535 4.57167 15.1842 5.55583 16.5175L5.54 16.4958L4.51917 19.5067L7.64583 18.5117C8.8875 19.3533 10.4183 19.855 12.0667 19.855H12.1058H12.1042ZM12.1042 2H12.1317C13.4883 2 14.7783 2.285 15.9442 2.79917L15.8833 2.775C18.2375 3.7725 20.0733 5.60833 21.0467 7.89917L21.0708 7.9625C21.5608 9.07667 21.8458 10.3758 21.8458 11.7417C21.8458 13.1075 21.5608 14.4067 21.0467 15.5825L21.0708 15.5208C20.0733 17.875 18.2375 19.7108 15.9467 20.6842L15.8833 20.7083C14.7775 21.1983 13.4875 21.4833 12.1308 21.4833C12.1217 21.4833 12.1117 21.4833 12.1025 21.4833H12.1042C12.0908 21.4833 12.0758 21.4833 12.06 21.4833C10.3442 21.4833 8.73333 21.0325 7.34 20.2433L7.3875 20.2683L2 22L3.7575 16.7675C2.88167 15.3392 2.3625 13.61 2.3625 11.7592C2.3625 10.3875 2.6475 9.0825 3.16167 7.9L3.1375 7.9625C4.135 5.60833 5.97083 3.7725 8.26167 2.79917L8.325 2.775C9.43083 2.285 10.7208 2 12.0775 2H12.105L12.1042 2Z" fill="white"/>
</g>
<defs>
<clipPath id="clip0_36_1578">
<rect width="20" height="20" fill="white" transform="translate(2 2)"/>
</clipPath>
</defs>
</svg>
