<svg width="24" height="24" viewBox="0 0 24 24" fill="none" xmlns="http://www.w3.org/2000/svg">
<path d="M6.35931 4.80029C5.37531 4.80029 4.72656 5.47229 4.72656 6.36029C4.72656 7.22429 5.35094 7.91954 6.31094 7.91954C7.34294 7.91954 7.99094 7.22429 7.96694 6.36029C7.96694 5.47229 7.34331 4.80029 6.35931 4.80029ZM15.5746 8.92829C13.9186 8.92829 12.9109 9.88792 12.5029 10.5599H12.4553L12.3109 9.14429H9.64731C9.67131 10.0563 9.71894 11.1123 9.71894 12.3603V19.1995H12.7906V13.4155C12.7906 13.1275 12.8146 12.8399 12.8866 12.6239C13.1266 12.0479 13.6309 11.4475 14.4709 11.4475C15.5989 11.4475 16.0309 12.3359 16.0309 13.6319V19.1995H19.1269V13.2723C19.1269 10.2963 17.5906 8.92829 15.5746 8.92829ZM4.79931 9.14429V19.1995H7.87094V9.14429H4.79931Z" fill="#FEFEFE"/>
</svg>
