<svg width="12" height="12" viewBox="0 0 12 12" fill="none" xmlns="http://www.w3.org/2000/svg">
<path d="M6.69922 5.69995V3.19995C6.69922 3.06734 6.64654 2.94017 6.55277 2.8464C6.459 2.75263 6.33183 2.69995 6.19922 2.69995C6.06661 2.69995 5.93943 2.75263 5.84567 2.8464C5.7519 2.94017 5.69922 3.06734 5.69922 3.19995V5.69995H3.19922C3.06661 5.69995 2.93943 5.75263 2.84567 5.8464C2.7519 5.94017 2.69922 6.06734 2.69922 6.19995C2.69922 6.33256 2.7519 6.45974 2.84567 6.5535C2.93943 6.64727 3.06661 6.69995 3.19922 6.69995H5.69922V9.19995C5.69922 9.33256 5.7519 9.45974 5.84567 9.5535C5.93943 9.64727 6.06661 9.69995 6.19922 9.69995C6.33183 9.69995 6.459 9.64727 6.55277 9.5535C6.64654 9.45974 6.69922 9.33256 6.69922 9.19995V6.69995H9.19922C9.33183 6.69995 9.459 6.64727 9.55277 6.5535C9.64654 6.45974 9.69922 6.33256 9.69922 6.19995C9.69922 6.06734 9.64654 5.94017 9.55277 5.8464C9.459 5.75263 9.33183 5.69995 9.19922 5.69995H6.69922Z" fill="#DDF3FF"/>
</svg>
