<svg width="16" height="16" viewBox="0 0 16 16" fill="none" xmlns="http://www.w3.org/2000/svg">
<path d="M8.93294 7.59998V4.26664C8.93294 4.08983 8.8627 3.92026 8.73768 3.79524C8.61266 3.67021 8.44309 3.59998 8.26628 3.59998C8.08946 3.59998 7.9199 3.67021 7.79487 3.79524C7.66985 3.92026 7.59961 4.08983 7.59961 4.26664V7.59998H4.26628C4.08947 7.59998 3.9199 7.67021 3.79487 7.79524C3.66985 7.92026 3.59961 8.08983 3.59961 8.26664C3.59961 8.44345 3.66985 8.61302 3.79487 8.73805C3.9199 8.86307 4.08947 8.93331 4.26628 8.93331H7.59961V12.2666C7.59961 12.4435 7.66985 12.613 7.79487 12.738C7.9199 12.8631 8.08946 12.9333 8.26628 12.9333C8.44309 12.9333 8.61266 12.8631 8.73768 12.738C8.8627 12.613 8.93294 12.4435 8.93294 12.2666V8.93331H12.2663C12.4431 8.93331 12.6127 8.86307 12.7377 8.73805C12.8627 8.61302 12.9329 8.44345 12.9329 8.26664C12.9329 8.08983 12.8627 7.92026 12.7377 7.79524C12.6127 7.67021 12.4431 7.59998 12.2663 7.59998H8.93294Z" fill="#EFD9F9"/>
</svg>
